<mxfile host="65bd71144e" pages="1">
    <diagram id="oxqNLMTQGE4kuDsFMKYy" name="Page-1">
        <mxGraphModel dx="1023" dy="524" grid="1" gridSize="10" guides="1" tooltips="1" connect="1" arrows="1" fold="1" page="1" pageScale="1" pageWidth="827" pageHeight="1169" math="0" shadow="0">
            <root>
                <mxCell id="0"/>
                <mxCell id="1" parent="0"/>
                <mxCell id="46" value="" style="rounded=1;whiteSpace=wrap;html=1;strokeColor=none;" vertex="1" parent="1">
                    <mxGeometry x="280" y="40" width="280" height="520" as="geometry"/>
                </mxCell>
                <mxCell id="8" value="&lt;b&gt;Exchanges&lt;/b&gt;&lt;br&gt;[Internet Service]&lt;br&gt;APIs that exchanges provides to get informations and execute orders." style="rounded=1;whiteSpace=wrap;html=1;fillColor=#f5f5f5;strokeColor=#666666;fontColor=#333333;" parent="1" vertex="1">
                    <mxGeometry x="320" y="440" width="200" height="80" as="geometry"/>
                </mxCell>
                <mxCell id="14" value="&lt;b&gt;User&lt;/b&gt;&lt;br&gt;[Application]&lt;br&gt;Application that a user will run to execute its strategies." style="rounded=1;whiteSpace=wrap;html=1;fillColor=#fff2cc;strokeColor=#d6b656;" parent="1" vertex="1">
                    <mxGeometry x="320" y="90" width="200" height="80" as="geometry"/>
                </mxCell>
                <mxCell id="15" value="&lt;b&gt;Cryptellation&lt;/b&gt;&lt;br&gt;[Software system]&lt;br&gt;Allows user to execute backtests, forward tests and live runs of strategies." style="rounded=1;whiteSpace=wrap;html=1;fillColor=#dae8fc;strokeColor=#6c8ebf;" parent="1" vertex="1">
                    <mxGeometry x="320" y="260" width="200" height="80" as="geometry"/>
                </mxCell>
                <mxCell id="25" value="" style="endArrow=classic;html=1;exitX=0.25;exitY=1;exitDx=0;exitDy=0;entryX=0.25;entryY=0;entryDx=0;entryDy=0;edgeStyle=orthogonalEdgeStyle;dashed=1;" parent="1" source="14" target="15" edge="1">
                    <mxGeometry width="50" height="50" relative="1" as="geometry">
                        <mxPoint x="890.2352941176473" y="329.88235294117646" as="sourcePoint"/>
                        <mxPoint x="1099.6470588235293" y="269.88235294117646" as="targetPoint"/>
                        <Array as="points">
                            <mxPoint x="370" y="210"/>
                            <mxPoint x="370" y="210"/>
                        </Array>
                    </mxGeometry>
                </mxCell>
                <mxCell id="26" value="Execute orders" style="text;html=1;resizable=0;points=[];align=center;verticalAlign=middle;labelBackgroundColor=#ffffff;" parent="25" vertex="1" connectable="0">
                    <mxGeometry x="0.2588" y="-1" relative="1" as="geometry">
                        <mxPoint x="0.5" y="-17" as="offset"/>
                    </mxGeometry>
                </mxCell>
                <mxCell id="40" value="" style="endArrow=classic;html=1;exitX=0.75;exitY=0;exitDx=0;exitDy=0;entryX=0.75;entryY=1;entryDx=0;entryDy=0;edgeStyle=orthogonalEdgeStyle;dashed=1;" parent="1" source="15" target="14" edge="1">
                    <mxGeometry width="50" height="50" relative="1" as="geometry">
                        <mxPoint x="380.42857142857156" y="179.8571428571429" as="sourcePoint"/>
                        <mxPoint x="380.42857142857156" y="269.8571428571429" as="targetPoint"/>
                        <Array as="points">
                            <mxPoint x="470" y="220"/>
                            <mxPoint x="470" y="220"/>
                        </Array>
                    </mxGeometry>
                </mxCell>
                <mxCell id="41" value="Get informations" style="text;html=1;resizable=0;points=[];align=center;verticalAlign=middle;labelBackgroundColor=#ffffff;" parent="40" vertex="1" connectable="0">
                    <mxGeometry x="0.2588" y="-1" relative="1" as="geometry">
                        <mxPoint x="-1.5" y="7.5" as="offset"/>
                    </mxGeometry>
                </mxCell>
                <mxCell id="42" value="" style="endArrow=classic;html=1;entryX=0.25;entryY=0;entryDx=0;entryDy=0;edgeStyle=orthogonalEdgeStyle;dashed=1;" parent="1" target="8" edge="1">
                    <mxGeometry width="50" height="50" relative="1" as="geometry">
                        <mxPoint x="370" y="340" as="sourcePoint"/>
                        <mxPoint x="380.42857142857156" y="269.8571428571429" as="targetPoint"/>
                        <Array as="points">
                            <mxPoint x="370" y="390"/>
                            <mxPoint x="370" y="390"/>
                        </Array>
                    </mxGeometry>
                </mxCell>
                <mxCell id="43" value="Execute orders" style="text;html=1;resizable=0;points=[];align=center;verticalAlign=middle;labelBackgroundColor=#ffffff;" parent="42" vertex="1" connectable="0">
                    <mxGeometry x="0.2588" y="-1" relative="1" as="geometry">
                        <mxPoint x="0.5" y="-17" as="offset"/>
                    </mxGeometry>
                </mxCell>
                <mxCell id="44" value="" style="endArrow=classic;html=1;exitX=0.75;exitY=0;exitDx=0;exitDy=0;entryX=0.75;entryY=1;entryDx=0;entryDy=0;edgeStyle=orthogonalEdgeStyle;dashed=1;" parent="1" source="8" target="15" edge="1">
                    <mxGeometry width="50" height="50" relative="1" as="geometry">
                        <mxPoint x="480.42857142857156" y="269.8571428571429" as="sourcePoint"/>
                        <mxPoint x="480.42857142857156" y="179.8571428571429" as="targetPoint"/>
                        <Array as="points">
                            <mxPoint x="470" y="400"/>
                            <mxPoint x="470" y="400"/>
                        </Array>
                    </mxGeometry>
                </mxCell>
                <mxCell id="45" value="Get informations" style="text;html=1;resizable=0;points=[];align=center;verticalAlign=middle;labelBackgroundColor=#ffffff;" parent="44" vertex="1" connectable="0">
                    <mxGeometry x="0.2588" y="-1" relative="1" as="geometry">
                        <mxPoint x="-1.5" y="7.5" as="offset"/>
                    </mxGeometry>
                </mxCell>
            </root>
        </mxGraphModel>
    </diagram>
</mxfile>
